<?xml version="1.0" encoding="UTF-8"?>
<svg xmlns="http://www.w3.org/2000/svg" xmlns:xlink="http://www.w3.org/1999/xlink" width="125pt" height="27pt" viewBox="0 0 125 27" version="1.1">
<g id="surface1">
<path style=" stroke:none;fill-rule:nonzero;fill:rgb(23.921569%,43.529412%,75.294118%);fill-opacity:1;" d="M 117.90625 22.144531 L 115.132812 22.144531 L 115.132812 14.503906 C 115.132812 11.441406 117.394531 10.789062 120.046875 10.789062 C 122.699219 10.789062 124.964844 11.441406 124.964844 14.503906 L 124.964844 22.144531 L 122.191406 22.144531 L 122.191406 14.917969 C 122.191406 14.570312 122.191406 14.035156 122 13.726562 C 121.671875 13.21875 120.566406 13.207031 120.046875 13.207031 C 119.527344 13.207031 118.421875 13.21875 118.097656 13.726562 C 117.90625 14.035156 117.90625 14.578125 117.90625 14.917969 Z M 108.570312 10.789062 C 109.878906 10.789062 111.421875 10.929688 112.429688 11.847656 C 113.5625 12.882812 113.730469 14.632812 113.730469 16.082031 L 113.730469 17.179688 C 113.730469 18.625 113.566406 20.375 112.429688 21.414062 C 111.421875 22.339844 109.882812 22.46875 108.570312 22.46875 C 107.253906 22.46875 105.714844 22.339844 104.710938 21.414062 C 103.570312 20.375 103.410156 18.625 103.410156 17.179688 L 103.410156 16.082031 C 103.410156 14.632812 103.570312 12.882812 104.710938 11.847656 C 105.714844 10.929688 107.269531 10.789062 108.570312 10.789062 Z M 110.914062 17.179688 L 110.914062 16.082031 C 110.929688 15.5 110.890625 14.921875 110.792969 14.351562 C 110.75 14.050781 110.613281 13.773438 110.40625 13.554688 C 109.992188 13.191406 109.085938 13.191406 108.570312 13.191406 C 108.050781 13.191406 107.152344 13.191406 106.742188 13.554688 C 106.535156 13.773438 106.398438 14.050781 106.355469 14.351562 C 106.257812 14.921875 106.21875 15.5 106.234375 16.082031 L 106.234375 17.179688 C 106.21875 17.757812 106.257812 18.339844 106.355469 18.910156 C 106.414062 19.191406 106.515625 19.511719 106.742188 19.703125 C 107.148438 20.070312 108.0625 20.070312 108.570312 20.070312 C 109.078125 20.070312 109.992188 20.070312 110.40625 19.703125 C 110.632812 19.511719 110.734375 19.195312 110.792969 18.910156 C 110.890625 18.339844 110.933594 17.757812 110.917969 17.179688 Z M 99.234375 22.140625 L 99.234375 11.113281 L 102.007812 11.113281 L 102.007812 22.144531 Z M 102.269531 8.378906 C 102.269531 9.515625 101.742188 10.039062 100.617188 10.039062 C 99.488281 10.039062 98.949219 9.511719 98.949219 8.378906 C 98.949219 7.25 99.488281 6.722656 100.617188 6.722656 C 101.742188 6.722656 102.273438 7.257812 102.273438 8.386719 Z M 90.53125 22.140625 L 87.757812 22.140625 L 87.757812 14.503906 C 87.757812 11.441406 90.019531 10.789062 92.675781 10.789062 C 95.328125 10.789062 97.589844 11.441406 97.589844 14.503906 L 97.589844 22.144531 L 94.8125 22.144531 L 94.8125 14.917969 C 94.8125 14.570312 94.8125 14.035156 94.621094 13.726562 C 94.296875 13.21875 93.1875 13.207031 92.671875 13.207031 C 92.152344 13.207031 91.046875 13.21875 90.71875 13.726562 C 90.527344 14.035156 90.527344 14.578125 90.527344 14.917969 L 90.527344 22.144531 Z M 79.832031 22.507812 C 78.035156 22.507812 75.921875 22.242188 74.683594 20.777344 C 73.523438 19.402344 73.394531 17.285156 73.394531 15.574219 L 73.394531 13.761719 C 73.394531 12.082031 73.523438 10.054688 74.609375 8.683594 C 75.839844 7.125 77.972656 6.828125 79.832031 6.828125 C 81.640625 6.828125 83.753906 7.082031 84.992188 8.558594 C 86.152344 9.921875 86.265625 12.039062 86.265625 13.761719 L 86.265625 15.582031 C 86.265625 17.261719 86.144531 19.285156 85.054688 20.648438 C 83.835938 22.214844 81.703125 22.511719 79.832031 22.511719 Z M 79.832031 20.003906 C 80.636719 20.003906 81.90625 19.992188 82.554688 19.4375 C 82.929688 19.109375 83.101562 18.609375 83.203125 18.144531 C 83.378906 17.308594 83.398438 16.34375 83.398438 15.496094 L 83.398438 13.839844 C 83.398438 12.992188 83.378906 12.039062 83.203125 11.214844 C 83.09375 10.738281 82.921875 10.25 82.546875 9.914062 C 81.90625 9.347656 80.644531 9.332031 79.832031 9.332031 C 79.019531 9.332031 77.757812 9.332031 77.121094 9.898438 C 76.742188 10.226562 76.570312 10.714844 76.46875 11.175781 C 76.28125 12.019531 76.28125 12.984375 76.28125 13.839844 L 76.28125 15.5 C 76.28125 16.351562 76.292969 17.300781 76.476562 18.125 C 76.578125 18.59375 76.75 19.089844 77.125 19.417969 C 77.773438 19.984375 79.019531 20.007812 79.832031 20.007812 Z M 79.832031 20.003906 "/>
<path style=" stroke:none;fill-rule:nonzero;fill:rgb(19.215686%,23.921569%,29.803922%);fill-opacity:1;" d="M 27.289062 22.144531 L 27.289062 7.207031 L 32.78125 7.207031 C 34.589844 7.207031 36.640625 7.5 37.902344 8.9375 C 39.058594 10.25 39.261719 12.183594 39.261719 13.863281 L 39.261719 15.480469 C 39.261719 17.167969 39.058594 19.121094 37.890625 20.441406 C 36.632812 21.875 34.589844 22.148438 32.78125 22.148438 Z M 30.058594 9.769531 L 30.058594 19.589844 L 32.78125 19.589844 C 33.613281 19.589844 34.753906 19.539062 35.433594 18.980469 C 35.808594 18.664062 36.011719 18.21875 36.140625 17.75 C 36.34375 16.996094 36.386719 16.109375 36.386719 15.339844 L 36.386719 13.992188 C 36.386719 13.21875 36.34375 12.34375 36.140625 11.589844 C 36.042969 11.117188 35.796875 10.683594 35.433594 10.359375 C 34.761719 9.8125 33.613281 9.769531 32.78125 9.769531 Z M 64.757812 21.957031 L 64.757812 25.652344 L 61.957031 25.652344 L 61.957031 16.082031 C 61.957031 14.632812 62.140625 12.894531 63.265625 11.855469 C 64.257812 10.941406 65.773438 10.789062 67.074219 10.789062 C 68.347656 10.789062 69.847656 10.921875 70.84375 11.816406 C 72.011719 12.863281 72.15625 14.707031 72.15625 16.183594 L 72.15625 17.078125 C 72.15625 18.449219 72.042969 20.128906 71.078125 21.199219 C 70.113281 22.269531 68.445312 22.476562 67.054688 22.476562 C 66.273438 22.46875 65.449219 22.339844 64.757812 21.96875 Z M 67.054688 20.066406 C 67.5625 20.066406 68.445312 20.066406 68.84375 19.699219 C 69.050781 19.464844 69.1875 19.175781 69.230469 18.863281 C 69.316406 18.273438 69.355469 17.671875 69.339844 17.074219 L 69.339844 16.179688 C 69.355469 15.566406 69.316406 14.953125 69.21875 14.347656 C 69.160156 14.050781 69.058594 13.734375 68.824219 13.535156 C 68.425781 13.1875 67.550781 13.1875 67.054688 13.1875 C 66.558594 13.1875 65.675781 13.1875 65.265625 13.542969 C 65.054688 13.757812 64.914062 14.035156 64.871094 14.335938 C 64.765625 14.910156 64.722656 15.492188 64.738281 16.078125 L 64.738281 17.5 C 64.738281 18.113281 64.75 19.191406 65.238281 19.648438 C 65.664062 20.046875 66.523438 20.070312 67.054688 20.070312 Z M 53.648438 17.738281 C 53.648438 18.304688 53.699219 19.0625 54.035156 19.398438 C 54.398438 19.761719 55.292969 19.761719 55.78125 19.761719 C 56.269531 19.761719 56.757812 19.773438 57.253906 19.773438 C 58.015625 19.761719 58.789062 19.753906 59.550781 19.722656 L 59.976562 19.714844 L 59.476562 22.136719 L 59.214844 22.144531 C 58.460938 22.175781 57.71875 22.195312 56.96875 22.195312 C 56.574219 22.195312 56.175781 22.1875 55.78125 22.1875 C 54.316406 22.1875 52.667969 21.933594 51.726562 20.691406 C 50.984375 19.699219 50.863281 18.347656 50.863281 17.160156 L 50.863281 16.039062 C 50.863281 14.777344 50.984375 13.300781 51.796875 12.261719 C 52.761719 11.03125 54.417969 10.789062 55.882812 10.789062 C 58.785156 10.789062 60.59375 11.9375 60.59375 14.941406 L 60.59375 15.234375 C 60.59375 15.945312 60.585938 17.046875 59.925781 17.496094 C 59.601562 17.707031 59.203125 17.738281 58.816406 17.738281 Z M 53.648438 15.441406 L 57.945312 15.441406 L 57.945312 15.105469 C 57.945312 14.632812 57.925781 13.921875 57.578125 13.566406 C 57.195312 13.148438 56.308594 13.140625 55.78125 13.140625 C 55.304688 13.140625 54.460938 13.140625 54.085938 13.507812 C 53.894531 13.707031 53.773438 13.964844 53.738281 14.238281 C 53.671875 14.636719 53.644531 15.039062 53.648438 15.441406 Z M 43.285156 17.738281 C 43.296875 18.304688 43.347656 19.0625 43.671875 19.398438 C 44.039062 19.761719 44.945312 19.761719 45.417969 19.761719 C 45.894531 19.761719 46.410156 19.773438 46.894531 19.773438 C 47.65625 19.761719 48.425781 19.753906 49.1875 19.722656 L 49.625 19.714844 L 49.121094 22.136719 L 48.855469 22.144531 C 48.117188 22.175781 47.363281 22.195312 46.613281 22.195312 C 46.214844 22.195312 45.820312 22.1875 45.425781 22.1875 C 43.960938 22.1875 42.324219 21.933594 41.382812 20.691406 C 40.640625 19.699219 40.507812 18.347656 40.507812 17.160156 L 40.507812 16.039062 C 40.507812 14.777344 40.628906 13.300781 41.441406 12.261719 C 42.40625 11.03125 44.0625 10.789062 45.527344 10.789062 C 48.429688 10.789062 50.25 11.9375 50.25 14.941406 L 50.25 15.234375 C 50.25 15.945312 50.230469 17.046875 49.570312 17.496094 C 49.253906 17.707031 48.847656 17.738281 48.472656 17.738281 Z M 43.285156 15.441406 L 47.585938 15.441406 L 47.585938 15.105469 C 47.585938 14.632812 47.5625 13.921875 47.226562 13.566406 C 46.832031 13.148438 45.953125 13.140625 45.417969 13.140625 C 44.941406 13.140625 44.101562 13.140625 43.722656 13.507812 C 43.519531 13.6875 43.4375 13.976562 43.386719 14.238281 C 43.3125 14.632812 43.277344 15.035156 43.285156 15.441406 Z M 43.285156 15.441406 "/>
<path style=" stroke:none;fill-rule:nonzero;fill:rgb(23.921569%,43.529412%,75.294118%);fill-opacity:1;" d="M 20.074219 10.585938 C 17.769531 8.0625 14.234375 4.792969 13.851562 3.15625 C 13.46875 1.519531 14.488281 0 14.488281 0 C 12.875 -0.03125 11.957031 0.785156 11.429688 1.710938 C 10.914062 0.785156 9.988281 -0.03125 8.378906 0 C 8.378906 0 9.40625 1.503906 9.019531 3.15625 C 8.632812 4.804688 5.089844 8.0625 2.796875 10.585938 C -3.632812 17.636719 1.945312 27 11.425781 27 C 20.902344 27 26.496094 17.636719 20.074219 10.585938 Z M 11.429688 24.84375 C 7.609375 24.84375 3.265625 22.785156 2.300781 18.632812 C 1.203125 13.78125 5.945312 10.796875 8.75 7.878906 L 9.207031 8.335938 C 9.449219 8.570312 9.695312 8.8125 9.949219 9.042969 C 9.746094 9.25 9.539062 9.441406 9.359375 9.625 C 7.03125 11.90625 3.003906 14.503906 3.882812 18.238281 C 4.664062 21.585938 8.382812 23.152344 11.429688 23.152344 C 14.476562 23.152344 18.195312 21.585938 18.976562 18.238281 C 19.851562 14.503906 15.828125 11.898438 13.503906 9.628906 C 12.40625 8.550781 11.308594 7.449219 10.21875 6.351562 C 10.648438 5.902344 11.046875 5.429688 11.410156 4.925781 L 11.429688 4.90625 L 11.449219 4.925781 C 14.386719 9.191406 21.953125 12.660156 20.570312 18.632812 C 19.597656 22.785156 15.261719 24.84375 11.429688 24.84375 Z M 14.335938 15.46875 C 14.140625 15.234375 13.929688 15.011719 13.707031 14.808594 L 14.886719 13.566406 C 16.59375 15.316406 18.222656 17.503906 15.710938 19.640625 C 14.625 20.570312 12.988281 20.984375 11.414062 20.984375 C 9.839844 20.984375 8.214844 20.570312 7.128906 19.640625 C 4.609375 17.496094 6.265625 15.296875 7.976562 13.535156 L 9.15625 14.789062 C 8.914062 14.996094 8.691406 15.222656 8.492188 15.46875 C 6.636719 17.78125 9.355469 19.214844 11.410156 19.214844 C 13.460938 19.214844 16.195312 17.78125 14.335938 15.46875 Z M 12.824219 16.976562 C 11.960938 17.464844 10.90625 17.460938 10.046875 16.964844 L 10.628906 13.648438 C 9.929688 13.257812 9.617188 12.417969 9.882812 11.660156 C 10.148438 10.90625 10.921875 10.453125 11.710938 10.589844 C 12.5 10.726562 13.078125 11.410156 13.074219 12.210938 C 13.078125 12.8125 12.753906 13.363281 12.226562 13.648438 Z M 12.824219 16.976562 "/>
</g>
</svg>
